<?xml version="1.0" standalone="no"?>
<!DOCTYPE svg PUBLIC "-//W3C//DTD SVG 20010904//EN"
 "http://www.w3.org/TR/2001/REC-SVG-20010904/DTD/svg10.dtd">
<svg version="1.0" xmlns="http://www.w3.org/2000/svg"
 width="243.000000pt" height="241.000000pt" viewBox="0 0 243.000000 241.000000"
 preserveAspectRatio="xMidYMid meet">

<g transform="translate(0.000000,241.000000) scale(0.100000,-0.100000)"
fill="#fff" stroke="none">
<path d="M193 542 l-53 -3 0 -120 0 -119 60 0 c33 0 60 4 60 10 0 6 -20 10
-45 10 l-45 0 0 50 0 50 35 0 c19 0 35 5 35 10 0 6 -16 10 -35 10 -35 0 -35 0
-35 44 l0 45 48 3 c26 2 43 5 37 8 -5 3 -34 4 -62 2z"/>
<path d="M451 529 c-5 -13 -21 -51 -36 -84 -64 -141 -65 -145 -50 -145 8 0 15
7 15 15 0 8 5 26 12 40 10 22 17 25 68 25 51 0 58 -3 68 -25 7 -14 12 -32 12
-40 0 -8 9 -15 20 -15 11 0 20 2 20 5 0 10 -102 230 -110 239 -6 6 -13 0 -19
-15z m36 -79 l22 -50 -49 0 -49 0 22 50 c12 27 24 50 27 50 3 0 15 -23 27 -50z"/>
<path d="M745 536 c-45 -20 -67 -50 -72 -99 -10 -84 42 -137 132 -137 65 0 85
13 85 55 0 24 -5 35 -15 35 -10 0 -15 -10 -15 -34 0 -50 -48 -62 -106 -27 -59
36 -69 134 -19 181 21 19 32 22 80 18 55 -5 74 4 33 16 -35 9 -70 6 -103 -8z"/>
<path d="M1275 540 l-40 -5 0 -118 0 -117 63 0 c38 0 62 4 62 11 0 7 -17 10
-45 7 l-45 -3 0 52 0 53 35 0 c19 0 35 5 35 10 0 6 -16 10 -35 10 -35 0 -35 0
-35 45 l0 45 40 0 c22 0 40 4 40 8 0 9 -17 9 -75 2z"/>
<path d="M1690 542 l-45 -3 0 -119 0 -120 63 0 c34 0 62 4 62 10 0 6 -22 10
-50 10 l-50 0 0 50 0 50 40 0 c22 0 40 5 40 10 0 6 -18 10 -40 10 l-40 0 0 45
0 45 45 0 c25 0 45 4 45 8 0 5 -6 8 -12 8 -7 -1 -33 -2 -58 -4z"/>
<path d="M2215 541 l-50 -6 0 -118 0 -117 63 0 c37 0 62 4 62 11 0 6 -17 9
-42 7 l-43 -3 -3 53 -3 52 35 0 c20 0 36 5 36 10 0 6 -16 10 -35 10 -35 0 -35
0 -35 45 l0 45 40 0 c22 0 40 5 40 10 0 6 -3 9 -7 8 -5 -1 -30 -4 -58 -7z"/>
<path d="M1010 420 l0 -120 60 0 c33 0 60 4 60 10 0 6 -20 10 -45 10 l-45 0 0
110 c0 91 -3 110 -15 110 -12 0 -15 -20 -15 -120z"/>
<path d="M1866 528 c4 -7 25 -36 46 -64 34 -45 38 -57 38 -107 0 -44 3 -57 15
-57 12 0 15 13 15 61 0 54 4 68 33 108 45 63 50 71 39 71 -5 0 -25 -22 -43
-50 -19 -27 -37 -50 -40 -50 -4 0 -22 22 -40 50 -20 28 -42 50 -52 50 -12 0
-16 -4 -11 -12z"/>
</g>
</svg>
